<svg xmlns="http://www.w3.org/2000/svg" xmlns:xlink="http://www.w3.org/1999/xlink" width="500" zoomAndPan="magnify" viewBox="0 0 375 374.999991" height="500" preserveAspectRatio="xMidYMid meet" version="1.0"><defs><g/><clipPath id="0f1837258d"><path d="M 35 23.523438 L 336 23.523438 L 336 272 L 35 272 Z M 35 23.523438 " clip-rule="nonzero"/></clipPath><clipPath id="33ad727563"><path d="M 39 192 L 87 192 L 87 351.273438 L 39 351.273438 Z M 39 192 " clip-rule="nonzero"/></clipPath></defs><g clip-path="url(#0f1837258d)"><path fill="#8c52ff" d="M 335.3125 165.226562 L 335.3125 252.535156 C 335.3125 258.644531 335.511719 264.953125 334.722656 270.863281 C 334.722656 270.863281 335.117188 269.878906 335.117188 271.851562 L 324.078125 271.851562 C 327.824219 258.054688 329.402344 244.453125 329.402344 230.460938 L 329.402344 199.519531 C 329.402344 120.6875 265.347656 57.027344 186.515625 57.027344 C 107.679688 57.027344 41.65625 120.6875 41.65625 199.519531 L 41.65625 230.460938 C 41.65625 244.453125 45.203125 258.054688 48.949219 271.851562 L 37.914062 271.851562 C 37.914062 269.878906 37.320312 271.257812 37.320312 271.0625 C 36.53125 264.953125 35.746094 258.644531 35.746094 252.535156 L 35.746094 165.226562 C 35.746094 86.394531 101.175781 23.523438 180.011719 23.523438 L 193.019531 23.523438 C 271.851562 23.523438 335.3125 86.394531 335.3125 165.226562 Z M 335.3125 165.226562 " fill-opacity="1" fill-rule="nonzero"/></g><g clip-path="url(#33ad727563)"><path fill="#8c52ff" d="M 63.335938 351.472656 C 50.328125 351.472656 39.6875 340.828125 39.6875 327.820312 L 39.6875 215.878906 C 39.6875 202.871094 50.328125 192.226562 63.335938 192.226562 C 76.34375 192.226562 86.988281 202.871094 86.988281 215.878906 L 86.988281 327.820312 C 86.988281 340.828125 76.34375 351.472656 63.335938 351.472656 Z M 63.335938 351.472656 " fill-opacity="1" fill-rule="nonzero"/></g><path fill="#8c52ff" d="M 23.917969 330.1875 C 10.910156 330.1875 0.269531 319.542969 0.269531 306.535156 L 0.269531 236.964844 C 0.269531 223.957031 10.910156 213.316406 23.917969 213.316406 C 36.925781 213.316406 47.570312 223.957031 47.570312 236.964844 L 47.570312 306.535156 C 47.570312 319.542969 36.925781 330.1875 23.917969 330.1875 Z M 23.917969 330.1875 " fill-opacity="1" fill-rule="nonzero"/><path fill="#8c52ff" d="M 311.664062 346.152344 C 324.671875 346.152344 335.3125 335.507812 335.3125 322.5 L 335.3125 210.554688 C 335.3125 197.546875 324.671875 186.90625 311.664062 186.90625 C 298.65625 186.90625 288.011719 197.546875 288.011719 210.554688 L 288.011719 322.5 C 288.011719 335.507812 298.65625 346.152344 311.664062 346.152344 Z M 311.664062 346.152344 " fill-opacity="1" fill-rule="nonzero"/><path fill="#8c52ff" d="M 351.082031 324.867188 C 364.089844 324.867188 374.730469 314.222656 374.730469 301.214844 L 374.730469 231.644531 C 374.730469 218.636719 364.089844 207.996094 351.082031 207.996094 C 338.074219 207.996094 327.429688 218.636719 327.429688 231.644531 L 327.429688 301.214844 C 327.429688 314.222656 338.074219 324.867188 351.082031 324.867188 Z M 351.082031 324.867188 " fill-opacity="1" fill-rule="nonzero"/><g fill="#737373" fill-opacity="1"><g transform="translate(129.875358, 192.529046)"><g><path d="M 78.546875 -46.28125 L 37.453125 -46.28125 L 37.453125 -19.203125 L 40.328125 -19.203125 C 44.554688 -19.203125 47.4375 -18.628906 48.96875 -17.484375 C 51.664062 -15.429688 53.015625 -12.804688 53.015625 -9.609375 C 53.015625 -5.890625 51.476562 -3.132812 48.40625 -1.34375 C 46.988281 -0.445312 44.296875 0 40.328125 0 L 17.09375 0 C 12.863281 0 9.921875 -0.578125 8.265625 -1.734375 C 5.703125 -3.910156 4.421875 -6.535156 4.421875 -9.609375 C 4.421875 -13.316406 5.957031 -16.066406 9.03125 -17.859375 C 10.4375 -18.753906 13.125 -19.203125 17.09375 -19.203125 L 18.25 -19.203125 L 18.25 -92.765625 C 11.59375 -93.398438 8.265625 -96.601562 8.265625 -102.375 C 8.265625 -106.082031 9.800781 -108.832031 12.875 -110.625 C 14.28125 -111.519531 16.96875 -111.96875 20.9375 -111.96875 L 40.328125 -111.96875 C 44.554688 -111.96875 47.4375 -111.394531 48.96875 -110.25 C 51.664062 -108.195312 53.015625 -105.570312 53.015625 -102.375 C 53.015625 -98.65625 51.476562 -95.898438 48.40625 -94.109375 C 46.738281 -93.210938 44.046875 -92.765625 40.328125 -92.765625 L 37.453125 -92.765625 L 37.453125 -65.5 L 78.546875 -65.5 L 78.546875 -92.765625 L 75.671875 -92.765625 C 71.578125 -92.765625 68.695312 -93.34375 67.03125 -94.5 C 64.34375 -96.539062 63 -99.164062 63 -102.375 C 63 -106.082031 64.535156 -108.832031 67.609375 -110.625 C 69.015625 -111.519531 71.703125 -111.96875 75.671875 -111.96875 L 95.078125 -111.96875 C 99.296875 -111.96875 102.238281 -111.394531 103.90625 -110.25 C 106.46875 -108.070312 107.75 -105.445312 107.75 -102.375 C 107.75 -96.601562 104.421875 -93.398438 97.765625 -92.765625 L 97.765625 -19.203125 L 98.90625 -19.203125 C 103.132812 -19.203125 106.019531 -18.628906 107.5625 -17.484375 C 110.25 -15.429688 111.59375 -12.804688 111.59375 -9.609375 C 111.59375 -5.890625 110.054688 -3.132812 106.984375 -1.34375 C 105.566406 -0.445312 102.875 0 98.90625 0 L 75.671875 0 C 71.578125 0 68.695312 -0.578125 67.03125 -1.734375 C 64.34375 -3.773438 63 -6.398438 63 -9.609375 C 63 -13.316406 64.535156 -16.066406 67.609375 -17.859375 C 68.890625 -18.753906 71.578125 -19.203125 75.671875 -19.203125 L 78.546875 -19.203125 Z M 78.546875 -46.28125 "/></g></g></g><g fill="#737373" fill-opacity="1"><g transform="translate(129.875358, 338.029036)"><g><path d="M 99.296875 -101.984375 L 99.296875 -85.078125 C 99.296875 -80.859375 98.71875 -77.914062 97.5625 -76.25 C 95.519531 -73.5625 92.960938 -72.21875 89.890625 -72.21875 C 87.066406 -72.21875 84.757812 -73.113281 82.96875 -74.90625 C 82.070312 -75.925781 81.175781 -78.488281 80.28125 -82.59375 C 79.382812 -86.425781 76.851562 -89.523438 72.6875 -91.890625 C 68.53125 -94.265625 63.441406 -95.453125 57.421875 -95.453125 C 51.410156 -95.453125 46.289062 -94.039062 42.0625 -91.21875 C 37.832031 -88.40625 35.71875 -84.953125 35.71875 -80.859375 C 35.71875 -78.804688 36.390625 -76.785156 37.734375 -74.796875 C 39.078125 -72.816406 40.773438 -71.316406 42.828125 -70.296875 C 45.773438 -68.753906 52.175781 -67.085938 62.03125 -65.296875 C 76.632812 -62.609375 86.625 -59.085938 92 -54.734375 C 99.550781 -48.710938 103.328125 -40.707031 103.328125 -30.71875 C 103.328125 -20.738281 99.289062 -12.675781 91.21875 -6.53125 C 83.15625 -0.382812 72.53125 2.6875 59.34375 2.6875 C 48.71875 2.6875 38.734375 0.191406 29.390625 -4.796875 C 26.828125 -1.722656 24.265625 -0.1875 21.703125 -0.1875 C 15.171875 -0.1875 11.90625 -4.414062 11.90625 -12.875 L 11.90625 -25.546875 C 11.90625 -29.765625 12.484375 -32.707031 13.640625 -34.375 C 15.554688 -36.9375 18.179688 -38.21875 21.515625 -38.21875 C 24.328125 -38.21875 26.628906 -37.320312 28.421875 -35.53125 C 29.316406 -34.632812 30.28125 -32.457031 31.3125 -29 C 32.207031 -25.539062 35.28125 -22.59375 40.53125 -20.15625 C 45.78125 -17.726562 51.601562 -16.515625 58 -16.515625 C 65.175781 -16.515625 71.195312 -17.921875 76.0625 -20.734375 C 80.925781 -23.554688 83.359375 -27.015625 83.359375 -31.109375 C 83.359375 -35.335938 81.050781 -38.734375 76.4375 -41.296875 C 73.363281 -42.960938 66.644531 -44.691406 56.28125 -46.484375 C 45.394531 -48.273438 37.132812 -50.769531 31.5 -53.96875 C 26.632812 -56.78125 22.789062 -60.554688 19.96875 -65.296875 C 17.15625 -70.035156 15.75 -75.160156 15.75 -80.671875 C 15.75 -90.398438 19.71875 -98.492188 27.65625 -104.953125 C 35.59375 -111.421875 45.515625 -114.65625 57.421875 -114.65625 C 67.410156 -114.65625 75.734375 -112.546875 82.390625 -108.328125 C 83.421875 -110.753906 84.445312 -112.414062 85.46875 -113.3125 C 86.488281 -114.207031 87.960938 -114.65625 89.890625 -114.65625 C 93.597656 -114.65625 96.285156 -113.1875 97.953125 -110.25 C 98.847656 -108.96875 99.296875 -106.210938 99.296875 -101.984375 Z M 99.296875 -101.984375 "/></g></g></g></svg>